<svg width="35" height="32" viewBox="0 0 35 32" fill="none" xmlns="http://www.w3.org/2000/svg">
<g filter="url(#filter0_d_0_1471)">
<path d="M10 0H7V3H10V0Z" fill="black"/>
<path d="M13 0H10V3H13V0Z" fill="black"/>
<path d="M7 3H4V6H7V3Z" fill="black"/>
<path d="M7 6H4V9H7V6Z" fill="black"/>
<path d="M7 9H4V12H7V9Z" fill="black"/>
<path d="M16 0H13V3H16V0Z" fill="black"/>
<path d="M10 12H7V15H10V12Z" fill="black"/>
<path d="M13 15H10V18H13V15Z" fill="black"/>
<path d="M16 18H13V21H16V18Z" fill="black"/>
<path d="M25 0H28V3H25V0Z" fill="black"/>
<path d="M22 0H25V3H22V0Z" fill="black"/>
<path d="M28 3H31V6H28V3Z" fill="black"/>
<path d="M28 6H31V9H28V6Z" fill="black"/>
<path d="M28 9H31V12H28V9Z" fill="black"/>
<path d="M19 0H22V3H19V0Z" fill="black"/>
<path d="M25 12H28V15H25V12Z" fill="black"/>
<path d="M22 15H25V18H22V15Z" fill="black"/>
<path d="M19 18H22V21H19V18Z" fill="black"/>
<path d="M19 3H16V6H19V3Z" fill="black"/>
<path d="M19 21H16V24H19V21Z" fill="black"/>
</g>
<defs>
<filter id="filter0_d_0_1471" x="0" y="0" width="35" height="32" filterUnits="userSpaceOnUse" color-interpolation-filters="sRGB">
<feFlood flood-opacity="0" result="BackgroundImageFix"/>
<feColorMatrix in="SourceAlpha" type="matrix" values="0 0 0 0 0 0 0 0 0 0 0 0 0 0 0 0 0 0 127 0" result="hardAlpha"/>
<feOffset dy="4"/>
<feGaussianBlur stdDeviation="2"/>
<feComposite in2="hardAlpha" operator="out"/>
<feColorMatrix type="matrix" values="0 0 0 0 0 0 0 0 0 0 0 0 0 0 0 0 0 0 0.25 0"/>
<feBlend mode="normal" in2="BackgroundImageFix" result="effect1_dropShadow_0_1471"/>
<feBlend mode="normal" in="SourceGraphic" in2="effect1_dropShadow_0_1471" result="shape"/>
</filter>
</defs>
</svg>
